<?xml version="1.0" encoding="utf-8"?>
<!-- Generator: Adobe Illustrator 16.0.4, SVG Export Plug-In . SVG Version: 6.00 Build 0)  -->
<!DOCTYPE svg PUBLIC "-//W3C//DTD SVG 1.1//EN" "http://www.w3.org/Graphics/SVG/1.1/DTD/svg11.dtd">
<svg version="1.1" id="Layer_1" xmlns="http://www.w3.org/2000/svg" xmlns:xlink="http://www.w3.org/1999/xlink" x="0px" y="0px"
	 width="45.899px" height="78.229px" viewBox="0 0 45.899 78.229" enable-background="new 0 0 45.899 78.229" xml:space="preserve">
<path fill="#C6704B" d="M7.8,11.229V0l1.13,0.229h14.398c0,0,16,3.54,18.802,5.4c2.26,1.5,3.77,5.6,3.77,5.6H20.8v18h25.1
	c0,0-0.8,2.05-3.8,3.562c-4.6,2.299-12.03,0.93-15.04,3.938c-2.66,2.66-3.66,10.25-3.66,10.25l-2.6,0.46v30.79h-13v-30.8l-3-0.55
	v-17.65H0c0.738-6,7.8-7.37,7.8-7.37v-6.8c0,0-7.062,1.17-7.8-3.83H7.8z"/>
</svg>
