<?xml version="1.0" encoding="utf-8"?>
<!-- Generator: Adobe Illustrator 16.0.4, SVG Export Plug-In . SVG Version: 6.00 Build 0)  -->
<!DOCTYPE svg PUBLIC "-//W3C//DTD SVG 1.1//EN" "http://www.w3.org/Graphics/SVG/1.1/DTD/svg11.dtd">
<svg version="1.1" id="Layer_1" xmlns="http://www.w3.org/2000/svg" xmlns:xlink="http://www.w3.org/1999/xlink" x="0px" y="0px"
	 width="240.11px" height="96.81px" viewBox="7.79 80.19 240.11 96.81" enable-background="new 7.79 80.19 240.11 96.81"
	 xml:space="preserve">
<g>
	<path fill="#EDEDED" d="M8.1,107.4c0-3.13,0.54-6.25,1.65-9.37c1.1-3.1,2.72-5.9,4.85-8.38c2.13-2.47,4.74-4.47,7.83-6
		c3.1-1.5,6.6-2.27,10.5-2.27c4.67,0,8.66,1.06,12,3.16c3.33,2.1,5.8,4.86,7.42,8.24l-5.22,3.38c-0.78-1.67-1.73-3.06-2.83-4.2
		c-1.1-1.12-2.3-2.02-3.6-2.7c-1.3-0.7-2.64-1.2-4-1.48c-1.38-0.3-2.73-0.44-4.05-0.44c-2.9,0-5.46,0.6-7.7,1.8
		c-2.22,1.2-4.1,2.77-5.6,4.7c-1.53,1.94-2.67,4.12-3.43,6.55c-0.76,2.4-1.14,4.8-1.14,7.3c0,2.7,0.45,5.3,1.36,7.8
		c0.9,2.5,2.17,4.6,3.8,6.6c1.6,1.9,3.52,3.4,5.72,4.5c2.2,1.1,4.6,1.7,7.2,1.7c1.38,0,2.8-0.2,4.23-0.5c1.4-0.4,2.8-0.9,4.1-1.7
		c1.3-0.8,2.5-1.8,3.7-2.9c1.1-1.2,2.1-2.6,2.8-4.2l5.5,3c-0.9,1.9-2,3.6-3.5,5.1s-3.2,2.7-5.1,3.801c-1.9,1-3.9,1.799-6,2.299
		c-2.1,0.5-4.2,0.801-6.2,0.801c-3.6,0-6.9-0.801-9.9-2.381c-3-1.579-5.6-3.6-7.8-6.149c-2.2-2.55-3.9-5.4-5.1-8.6
		c-1.2-3.24-1.8-6.5-1.8-9.84L8.1,107.4z M70.8,134.6c-1.9,0-3.67-0.3-5.3-0.899c-1.6-0.62-3-1.45-4.18-2.5
		c-1.18-1.06-2.1-2.3-2.76-3.76c-0.66-1.44-1-2.98-1-4.6c0-1.8,0.4-3.46,1.2-4.96c0.77-1.5,1.88-2.77,3.33-3.82
		c1.4-1.05,3.1-1.86,5.1-2.42s4.1-0.85,6.5-0.85c1.8,0,3.7,0.1,5.6,0.5c1.9,0.3,3.6,0.8,5,1.4v-3.1c0-3.2-0.9-5.6-2.7-7.4
		c-1.8-1.8-4.3-2.7-7.5-2.7c-3.9,0-8,1.5-12.2,4.5l-2-4.2c2.5-1.7,4.9-2.9,7.4-3.8c2.4-0.9,5-1.3,7.6-1.3c4.9,0,8.76,1.3,11.6,4
		c2.85,2.7,4.3,6.5,4.3,11.4v15.6c0,1.53,0.7,2.3,2.04,2.4v5.551c-0.4,0.1-0.9,0.199-1.4,0.25c-0.4,0.049-0.8,0.08-1.2,0.08
		c-1.1,0-2.1-0.301-3.1-0.9s-1.6-1.6-1.7-3.03l-0.1-2.7c-0.9,1.2-1.9,2.2-3,3.1c-1.15,0.9-2.35,1.601-3.6,2.201
		c-1.3,0.6-2.6,1.1-3.96,1.399c-1.33,0.3-2.66,0.42-4,0.42L70.8,134.6z M72.42,129.76c2.06,0,4.07-0.439,6.03-1.33
		c1.96-0.88,3.5-1.96,4.63-3.23c0.93-1.08,1.4-2.08,1.4-3.02v-5.66c-1.52-0.58-3.13-1.04-4.82-1.36c-1.7-0.3-3.32-0.47-4.9-0.47
		c-3.32,0-6,0.6-8,2s-3.02,3.2-3.02,5.5c0,1,0.2,1.9,0.6,2.8c0.4,0.9,0.95,1.7,1.68,2.4c0.74,0.7,1.65,1.2,2.72,1.6
		c1.08,0.4,2.3,0.6,3.68,0.6V129.76z M101.52,80.2H108v43.75c0,1.42,0.38,2.54,1.14,3.35c0.76,0.8,1.83,1.2,3.2,1.2
		c0.54,0,1.18-0.08,1.9-0.25c0.75-0.17,1.43-0.38,2.07-0.62l1.1,5.22c-1.1,0.44-2.3,0.801-3.8,1.101c-1.4,0.3-2.7,0.44-3.9,0.44
		c-2.5,0-4.4-0.801-5.9-2.201c-1.4-1.399-2.1-3.399-2.1-6v-46L101.52,80.2z M121.97,88.3v-8.1h6.47v8.1H121.97z M121.97,133.88V95.5
		h6.47v38.38H121.97z M201.3,134.6c-2.899,0-5.54-0.52-7.94-1.57c-2.399-1.049-4.459-2.5-6.18-4.299c-1.699-1.8-3.05-3.931-4-6.36
		c-0.959-2.43-1.439-5-1.439-7.68c0-2.7,0.48-5.3,1.439-7.7c0.95-2.4,2.301-4.5,4.041-6.3c1.739-1.8,3.799-3.3,6.199-4.3
		c2.4-1.1,5.061-1.6,7.95-1.6c2.899,0,5.53,0.5,7.899,1.6c2.381,1.1,4.4,2.5,6.07,4.3c1.67,1.8,2.95,3.9,3.86,6.2
		c0.899,2.3,1.36,4.8,1.36,7.4c0,0.5,0,1-0.041,1.4c-0.02,0.4-0.06,0.8-0.1,1h-31.84c0.15,1.9,0.6,3.6,1.32,5.2
		c0.74,1.6,1.699,2.9,2.869,4c1.181,1.1,2.5,2,4,2.6c1.5,0.6,3.08,0.92,4.75,0.92c1.17,0,2.33-0.17,3.451-0.5
		c1.129-0.301,2.18-0.75,3.159-1.3c0.979-0.55,1.851-1.2,2.601-1.97c0.77-0.8,1.35-1.7,1.74-2.67l5.6,1.55
		c-0.65,1.4-1.521,2.7-2.62,3.9c-1.101,1.16-2.38,2.2-3.82,3.03c-1.45,0.85-3.05,1.52-4.819,2c-1.701,0.5-3.601,0.739-5.5,0.739
		L201.3,134.6z M214.46,112.1c-0.149-1.8-0.601-3.48-1.36-5.02c-0.76-1.55-1.72-2.86-2.869-3.94c-1.15-1.07-2.5-1.92-4-2.53
		c-1.53-0.6-3.141-0.9-4.86-0.9s-3.33,0.3-4.851,0.9c-1.52,0.7-2.859,1.5-4,2.6c-1.16,1.1-2.1,2.4-2.799,4
		c-0.701,1.6-1.141,3.2-1.301,5h26.04V112.1z M247.9,101.16c-3.23,0.1-6.08,0.93-8.561,2.5c-2.47,1.57-4.23,3.75-5.25,6.54v23.68
		h-6.5V95.5h6v8.9c1.301-2.65,3-4.85,5.2-6.6c2.101-1.72,4.399-2.6,6.899-2.6h1.301c0,0,0.6,0.03,0.9,0.08v5.88H247.9z"/>
	<path fill="#EDEDED" d="M140,110V98.77l1.13,0.23h14.399c0,0,16,3.54,18.801,5.4c2.26,1.5,3.77,5.6,3.77,5.6H153v18h25.1
		c0,0-0.8,2.05-3.8,3.561c-4.6,2.299-12.03,0.93-15.04,3.939c-2.66,2.66-3.66,10.25-3.66,10.25l-2.6,0.46V177h-13v-30.8l-3-0.55V128
		h-4.8c0.739-6,7.8-7.37,7.8-7.37v-6.8c0,0-7.061,1.17-7.8-3.83H140z"/>
	<rect x="171.63" y="111" fill="#EDEDED" width="6.47" height="16"/>
</g>
</svg>
