<svg xmlns="http://www.w3.org/2000/svg" viewBox="7.79 80.19 240.11 96.81">
  <g fill="#e8e8e8">
    <path d="M8.1 107.4c0-3.13.54-6.25 1.65-9.37 1.1-3.1 2.72-5.9 4.85-8.38 2.13-2.47 4.74-4.47 7.83-6 3.1-1.5 6.6-2.27 10.5-2.27 4.67 0 8.66 1.06 12 3.16 3.33 2.1 5.8 4.86 7.42 8.24l-5.22 3.38c-.78-1.67-1.73-3.06-2.83-4.2-1.1-1.12-2.3-2.02-3.6-2.7-1.3-.7-2.64-1.2-4-1.48-1.38-.3-2.73-.44-4.05-.44-2.9 0-5.46.6-7.7 1.8-2.22 1.2-4.1 2.77-5.6 4.7-1.53 1.94-2.67 4.12-3.43 6.55-.76 2.4-1.14 4.8-1.14 7.3 0 2.7.45 5.3 1.36 7.8.9 2.5 2.17 4.6 3.8 6.6 1.6 1.9 3.52 3.4 5.72 4.5 2.2 1.1 4.6 1.7 7.2 1.7 1.38 0 2.8-.2 4.23-.5 1.4-.4 2.8-.9 4.1-1.7 1.3-.8 2.5-1.8 3.7-2.9 1.1-1.2 2.1-2.6 2.8-4.2l5.5 3c-.9 1.9-2 3.6-3.5 5.1s-3.2 2.7-5.1 3.8c-1.9 1-3.9 1.8-6 2.3-2.1.5-4.2.8-6.2.8-3.6 0-6.9-.8-9.9-2.4-3-1.6-5.6-3.6-7.8-6.2s-3.9-5.4-5.1-8.6c-1.2-3.3-1.8-6.5-1.8-9.9l.3.4zm62.7 27.2c-1.9 0-3.67-.3-5.3-.9-1.6-.62-3-1.45-4.18-2.5-1.18-1.06-2.1-2.3-2.76-3.76-.66-1.44-1-2.98-1-4.6 0-1.8.4-3.46 1.2-4.96.77-1.5 1.88-2.77 3.33-3.82 1.4-1.05 3.1-1.86 5.1-2.42s4.1-.85 6.5-.85c1.8 0 3.7.1 5.6.5 1.9.3 3.6.8 5 1.4v-3.1c0-3.2-.9-5.6-2.7-7.4-1.8-1.8-4.3-2.7-7.5-2.7-3.9 0-8 1.5-12.2 4.5l-2-4.2c2.5-1.7 4.9-2.9 7.4-3.8 2.4-.9 5-1.3 7.6-1.3 4.9 0 8.7 1.3 11.6 4 2.8 2.7 4.3 6.5 4.3 11.4v15.6c0 1.5.7 2.3 2 2.4v5.5c-.4.1-.9.2-1.4.2h-1.2c-1.1 0-2.1-.3-3.1-.9s-1.6-1.6-1.7-3.07l-.1-2.7c-.9 1.2-1.9 2.2-3 3.1-1.2.9-2.4 1.6-3.6 2.2-1.3.6-2.6 1.1-4 1.4-1.4.3-2.7.42-4 .42v.12zm1.62-4.84c2.06 0 4.07-.44 6.03-1.33 1.96-.88 3.5-1.96 4.63-3.23.93-1.08 1.4-2.08 1.4-3.02v-5.66c-1.52-.58-3.13-1.04-4.82-1.36-1.7-.3-3.32-.47-4.9-.47-3.32 0-6 .6-8 2s-3.02 3.2-3.02 5.5c0 1 .2 1.9.6 2.8.4.9.95 1.7 1.68 2.4.74.7 1.65 1.2 2.72 1.6 1.08.4 2.3.6 3.68.6v.1zm29.1-49.56H108v43.75c0 1.42.38 2.54 1.14 3.35.76.8 1.83 1.2 3.2 1.2.54 0 1.18-.08 1.9-.25.75-.17 1.43-.38 2.07-.62l1.1 5.22c-1.1.44-2.3.8-3.8 1.1-1.4.3-2.7.44-3.9.44-2.5 0-4.4-.8-5.9-2.2-1.4-1.4-2.1-3.4-2.1-6v-46h-.1zm20.45 8.1v-8.1h6.47v8.1h-6.47zm0 45.58V95.5h6.47v38.38h-6.47zm79.33.72c-2.9 0-5.54-.52-7.94-1.57-2.4-1.05-4.46-2.5-6.18-4.3-1.7-1.8-3.05-3.93-4-6.36-.96-2.43-1.44-5-1.44-7.68 0-2.7.48-5.3 1.44-7.7.95-2.4 2.3-4.5 4.04-6.3 1.74-1.8 3.8-3.3 6.2-4.3 2.4-1.1 5.06-1.6 7.95-1.6 2.9 0 5.53.5 7.9 1.6 2.38 1.1 4.4 2.5 6.07 4.3 1.67 1.8 2.95 3.9 3.86 6.2.9 2.3 1.36 4.8 1.36 7.4 0 .5 0 1-.04 1.4-.02.4-.06.8-.1 1h-31.84c.15 1.9.6 3.6 1.32 5.2.74 1.6 1.7 2.9 2.87 4 1.18 1.1 2.5 2 4 2.6 1.5.6 3.08.9 4.75.9 1.17 0 2.33-.2 3.45-.5 1.13-.3 2.18-.8 3.16-1.3s1.85-1.2 2.6-2c.77-.8 1.35-1.7 1.74-2.7l5.6 1.5c-.65 1.4-1.52 2.7-2.62 3.9-1.1 1.1-2.38 2.2-3.82 3-1.45.8-3.05 1.5-4.82 2-1.7.5-3.6.7-5.5.7v.4zm13.16-22.5c-.15-1.8-.6-3.48-1.36-5.02-.76-1.55-1.72-2.86-2.87-3.94-1.15-1.07-2.5-1.92-4-2.53-1.53-.6-3.14-.9-4.86-.9s-3.33.3-4.85.9c-1.52.7-2.86 1.5-4 2.6-1.16 1.1-2.1 2.4-2.8 4-.7 1.6-1.14 3.2-1.3 5h26.04v-.1zm33.44-10.94c-3.23.1-6.08.93-8.56 2.5-2.47 1.57-4.23 3.75-5.25 6.54v23.68h-6.5V95.5h6v8.9c1.3-2.65 3-4.85 5.2-6.6 2.1-1.72 4.4-2.6 6.9-2.6h1.3s.6.03.9.08v5.88zM140 110V98.77l1.13.23h14.4s16 3.54 18.8 5.4c2.26 1.5 3.77 5.6 3.77 5.6H153v18h25.1s-.8 2.05-3.8 3.56c-4.6 2.3-12.03.93-15.04 3.94-2.66 2.66-3.66 10.25-3.66 10.25l-2.6.46V177h-13v-30.8l-3-.55V128h-4.8c.74-6 7.8-7.37 7.8-7.37v-6.8s-7.06 1.17-7.8-3.83h7.8z"/>
    <path d="M171.63 111h6.47v16h-6.47z"/>
  </g>
</svg>
