<?xml version="1.0" encoding="utf-8"?>
<!-- Generator: Adobe Illustrator 19.1.0, SVG Export Plug-In . SVG Version: 6.00 Build 0)  -->
<svg version="1.1" id="Layer_1" xmlns="http://www.w3.org/2000/svg" xmlns:xlink="http://www.w3.org/1999/xlink" x="0px" y="0px"
	 viewBox="0 0 130.3 54.3" style="enable-background:new 0 0 130.3 54.3;" xml:space="preserve">
<style type="text/css">
	.st0{fill:#E68D35;}
	.st1{fill:none;stroke:#000000;stroke-width:4;stroke-miterlimit:10;}
	.st2{fill:#C6704B;}
	.st3{fill:#b3d1fd;}
	.st4{fill:#BCC4CC;}
	.st5{fill:#F2F2F2;}
</style>
<rect x="-437.5" y="-99.6" class="st0" width="286" height="263.6"/>
<rect x="-294.5" y="10" class="st1" width="35.7" height="11"/>
<rect x="-294.5" y="21" class="st1" width="27.3" height="11"/>
<rect x="-294.5" y="32.2" class="st1" width="18.9" height="11"/>
<text transform="matrix(1 0 0 1 -365.8333 44.2614)" style="font-family:'Raleway-Regular'; font-size:24px;">Flock</text>
<rect x="81.5" y="11.5" class="st2" width="35.7" height="11"/>
<rect x="81.5" y="22.6" class="st3" width="27.3" height="11"/>
<rect x="81.5" y="33.7" class="st4" width="18.9" height="11"/>
<g>
	<path class="st5" d="M12.3,44.8v-17h11.2v1.5H14v6.3h8v1.4h-8v7.9H12.3z"/>
	<path class="st5" d="M26.2,27.3h1.6v14.7c0,0.5,0.1,0.8,0.4,1.1c0.3,0.3,0.6,0.4,1.1,0.4c0.2,0,0.4,0,0.6-0.1
		c0.2,0,0.5-0.1,0.7-0.2l0.3,1.3c-0.3,0.1-0.7,0.2-1.1,0.3c-0.4,0.1-0.8,0.1-1.1,0.1c-0.8,0-1.3-0.2-1.8-0.6c-0.4-0.4-0.6-1-0.6-1.8
		V27.3z"/>
	<path class="st5" d="M38,45c-0.9,0-1.7-0.2-2.5-0.5c-0.8-0.3-1.4-0.8-2-1.4c-0.6-0.6-1-1.3-1.3-2.1c-0.3-0.8-0.5-1.6-0.5-2.5
		c0-0.9,0.2-1.7,0.5-2.5c0.3-0.8,0.7-1.5,1.3-2.1c0.6-0.6,1.2-1.1,2-1.4c0.8-0.4,1.6-0.5,2.5-0.5c0.9,0,1.7,0.2,2.5,0.5
		c0.8,0.4,1.4,0.8,2,1.4c0.6,0.6,1,1.3,1.3,2.1c0.3,0.8,0.5,1.6,0.5,2.5c0,0.9-0.2,1.7-0.5,2.5c-0.3,0.8-0.7,1.5-1.3,2.1
		c-0.6,0.6-1.2,1.1-2,1.4C39.7,44.8,38.9,45,38,45z M33.4,38.6c0,0.7,0.1,1.4,0.4,2c0.2,0.6,0.6,1.1,1,1.6s0.9,0.8,1.4,1.1
		c0.6,0.3,1.1,0.4,1.8,0.4c0.6,0,1.2-0.1,1.8-0.4c0.6-0.3,1-0.6,1.5-1.1s0.7-1,1-1.6c0.2-0.6,0.4-1.3,0.4-2c0-0.7-0.1-1.3-0.4-2
		c-0.2-0.6-0.6-1.2-1-1.6s-0.9-0.8-1.5-1.1c-0.6-0.3-1.1-0.4-1.8-0.4c-0.6,0-1.2,0.1-1.8,0.4c-0.5,0.3-1,0.6-1.4,1.1s-0.7,1-1,1.6
		S33.4,37.9,33.4,38.6z"/>
	<path class="st5" d="M46,38.5c0-0.9,0.2-1.7,0.5-2.5c0.3-0.8,0.7-1.5,1.3-2.1c0.6-0.6,1.2-1,2-1.4s1.6-0.5,2.5-0.5
		c1.2,0,2.2,0.3,3.1,0.8s1.5,1.3,2,2.2l-1.6,0.5c-0.4-0.6-0.8-1.1-1.5-1.5c-0.6-0.4-1.3-0.5-2.1-0.5c-0.6,0-1.2,0.1-1.8,0.4
		c-0.6,0.3-1,0.6-1.4,1c-0.4,0.4-0.7,1-1,1.6c-0.2,0.6-0.3,1.3-0.3,2c0,0.7,0.1,1.4,0.4,2c0.2,0.6,0.6,1.2,1,1.6s0.9,0.8,1.5,1.1
		c0.6,0.3,1.1,0.4,1.8,0.4c0.4,0,0.8-0.1,1.2-0.2c0.4-0.1,0.8-0.3,1.1-0.5s0.6-0.4,0.9-0.7c0.2-0.3,0.4-0.5,0.5-0.8l1.6,0.5
		c-0.2,0.4-0.4,0.9-0.8,1.2s-0.7,0.7-1.2,1s-1,0.5-1.5,0.6c-0.6,0.2-1.1,0.2-1.7,0.2c-0.9,0-1.8-0.2-2.5-0.5c-0.8-0.3-1.4-0.8-2-1.4
		c-0.6-0.6-1-1.3-1.3-2.1C46.2,40.2,46,39.4,46,38.5z"/>
	<path class="st5" d="M69,44.8l-4.6-6.4l-2.7,2.5v3.9h-1.6V27.3h1.6v11.9l7-6.9h1.8l-5.1,5.1l5.3,7.4H69z"/>
</g>
</svg>
