<?xml version="1.0" encoding="utf-8"?>
<!-- Generator: Adobe Illustrator 19.1.0, SVG Export Plug-In . SVG Version: 6.00 Build 0)  -->
<svg version="1.1" id="Layer_1" xmlns="http://www.w3.org/2000/svg" xmlns:xlink="http://www.w3.org/1999/xlink" x="0px" y="0px"
	 viewBox="0 0 134.7 58.3" style="enable-background:new 0 0 134.7 58.3;" xml:space="preserve">
<style type="text/css">
	.st0{fill:none;stroke:#000000;stroke-width:4;stroke-miterlimit:10;}
	.st1{fill:#333333;}
	.st2{fill:#E68D35;}
	.st3{fill:#068894;}
	.st4{fill:#09AA64;}
	.st5{fill:#F2F2F2;}
</style>
<rect x="82" y="13" class="st0" width="35.7" height="11"/>
<rect x="82" y="24.1" class="st0" width="27.3" height="11"/>
<rect x="82" y="35.2" class="st0" width="18.9" height="11"/>
<g>
	<path d="M12.8,47.3v-17H24v1.5h-9.5V38h8v1.4h-8v7.9H12.8z"/>
	<path d="M26.6,29.8h1.6v14.7c0,0.5,0.1,0.8,0.4,1.1c0.3,0.3,0.6,0.4,1.1,0.4c0.2,0,0.4,0,0.6-0.1c0.2,0,0.5-0.1,0.7-0.2l0.3,1.3
		c-0.3,0.1-0.7,0.2-1.1,0.3c-0.4,0.1-0.8,0.1-1.1,0.1c-0.8,0-1.3-0.2-1.8-0.6s-0.6-1-0.6-1.8V29.8z"/>
	<path d="M38.4,47.5c-0.9,0-1.7-0.2-2.5-0.5c-0.8-0.3-1.4-0.8-2-1.4c-0.6-0.6-1-1.3-1.3-2.1c-0.3-0.8-0.5-1.6-0.5-2.5
		c0-0.9,0.2-1.7,0.5-2.5s0.7-1.5,1.3-2.1c0.6-0.6,1.2-1.1,2-1.4c0.8-0.4,1.6-0.5,2.5-0.5s1.7,0.2,2.5,0.5c0.8,0.4,1.4,0.8,2,1.4
		c0.6,0.6,1,1.3,1.3,2.1s0.5,1.6,0.5,2.5c0,0.9-0.2,1.7-0.5,2.5c-0.3,0.8-0.7,1.5-1.3,2.1c-0.6,0.6-1.2,1.1-2,1.4
		C40.2,47.3,39.3,47.5,38.4,47.5z M33.9,41.1c0,0.7,0.1,1.4,0.4,2c0.2,0.6,0.6,1.1,1,1.6c0.4,0.5,0.9,0.8,1.4,1.1
		c0.6,0.3,1.1,0.4,1.8,0.4s1.2-0.1,1.8-0.4c0.6-0.3,1-0.6,1.5-1.1c0.4-0.5,0.7-1,1-1.6c0.2-0.6,0.4-1.3,0.4-2c0-0.7-0.1-1.3-0.4-2
		c-0.2-0.6-0.6-1.2-1-1.6c-0.4-0.5-0.9-0.8-1.5-1.1C39.6,36.1,39,36,38.4,36s-1.2,0.1-1.8,0.4c-0.5,0.3-1,0.6-1.4,1.1
		c-0.4,0.5-0.7,1-1,1.6C34,39.7,33.9,40.4,33.9,41.1z"/>
	<path d="M46.5,41c0-0.9,0.2-1.7,0.5-2.5c0.3-0.8,0.7-1.5,1.3-2.1c0.6-0.6,1.2-1,2-1.4c0.8-0.3,1.6-0.5,2.5-0.5
		c1.2,0,2.2,0.3,3.1,0.8s1.5,1.3,2,2.2L56.3,38c-0.4-0.6-0.8-1.1-1.5-1.5c-0.6-0.4-1.3-0.5-2.1-0.5c-0.6,0-1.2,0.1-1.8,0.4
		c-0.6,0.3-1,0.6-1.4,1c-0.4,0.4-0.7,1-1,1.6c-0.2,0.6-0.3,1.3-0.3,2c0,0.7,0.1,1.4,0.4,2c0.2,0.6,0.6,1.2,1,1.6
		c0.4,0.5,0.9,0.8,1.5,1.1c0.6,0.3,1.1,0.4,1.8,0.4c0.4,0,0.8-0.1,1.2-0.2c0.4-0.1,0.8-0.3,1.1-0.5s0.6-0.4,0.9-0.7
		c0.2-0.3,0.4-0.5,0.5-0.8l1.6,0.5c-0.2,0.4-0.4,0.9-0.8,1.2s-0.7,0.7-1.2,1s-1,0.5-1.5,0.6c-0.6,0.2-1.1,0.2-1.7,0.2
		c-0.9,0-1.8-0.2-2.5-0.5c-0.8-0.3-1.4-0.8-2-1.4c-0.6-0.6-1-1.3-1.3-2.1S46.5,41.9,46.5,41z"/>
	<path d="M69.5,47.3l-4.6-6.4l-2.7,2.5v3.9h-1.6V29.8h1.6v11.9l7-6.9h1.8L66,39.9l5.3,7.4H69.5z"/>
</g>
<rect x="315" y="-91" class="st1" width="286" height="263.6"/>
<rect x="458" y="14.5" class="st2" width="35.7" height="11"/>
<rect x="458" y="25.6" class="st3" width="27.3" height="11"/>
<rect x="458" y="36.8" class="st4" width="18.9" height="11"/>
<g>
	<path class="st5" d="M388.8,47.8v-17H400v1.5h-9.5v6.3h8v1.4h-8v7.9H388.8z"/>
	<path class="st5" d="M402.6,30.3h1.6v14.7c0,0.5,0.1,0.8,0.4,1.1c0.3,0.3,0.6,0.4,1.1,0.4c0.2,0,0.4,0,0.6-0.1
		c0.2,0,0.5-0.1,0.7-0.2l0.3,1.3c-0.3,0.1-0.7,0.2-1.1,0.3c-0.4,0.1-0.8,0.1-1.1,0.1c-0.8,0-1.3-0.2-1.8-0.6c-0.4-0.4-0.6-1-0.6-1.8
		V30.3z"/>
	<path class="st5" d="M414.4,48c-0.9,0-1.7-0.2-2.5-0.5c-0.8-0.3-1.4-0.8-2-1.4c-0.6-0.6-1-1.3-1.3-2.1c-0.3-0.8-0.5-1.6-0.5-2.5
		c0-0.9,0.2-1.7,0.5-2.5s0.7-1.5,1.3-2.1c0.6-0.6,1.2-1.1,2-1.4c0.8-0.4,1.6-0.5,2.5-0.5c0.9,0,1.7,0.2,2.5,0.5
		c0.8,0.4,1.4,0.8,2,1.4c0.6,0.6,1,1.3,1.3,2.1c0.3,0.8,0.5,1.6,0.5,2.5c0,0.9-0.2,1.7-0.5,2.5c-0.3,0.8-0.7,1.5-1.3,2.1
		c-0.6,0.6-1.2,1.1-2,1.4C416.2,47.8,415.3,48,414.4,48z M409.9,41.6c0,0.7,0.1,1.4,0.4,2c0.2,0.6,0.6,1.1,1,1.6s0.9,0.8,1.4,1.1
		c0.6,0.3,1.1,0.4,1.8,0.4c0.6,0,1.2-0.1,1.8-0.4c0.6-0.3,1-0.6,1.5-1.1s0.7-1,1-1.6c0.2-0.6,0.4-1.3,0.4-2c0-0.7-0.1-1.3-0.4-2
		c-0.2-0.6-0.6-1.2-1-1.6s-0.9-0.8-1.5-1.1c-0.6-0.3-1.1-0.4-1.8-0.4c-0.6,0-1.2,0.1-1.8,0.4c-0.5,0.3-1,0.6-1.4,1.1s-0.7,1-1,1.6
		S409.9,40.9,409.9,41.6z"/>
	<path class="st5" d="M422.5,41.5c0-0.9,0.2-1.7,0.5-2.5c0.3-0.8,0.7-1.5,1.3-2.1c0.6-0.6,1.2-1,2-1.4s1.6-0.5,2.5-0.5
		c1.2,0,2.2,0.3,3.1,0.8s1.5,1.3,2,2.2l-1.6,0.5c-0.4-0.6-0.8-1.1-1.5-1.5c-0.6-0.4-1.3-0.5-2.1-0.5c-0.6,0-1.2,0.1-1.8,0.4
		c-0.6,0.3-1,0.6-1.4,1c-0.4,0.4-0.7,1-1,1.6c-0.2,0.6-0.3,1.3-0.3,2c0,0.7,0.1,1.4,0.4,2c0.2,0.6,0.6,1.2,1,1.6s0.9,0.8,1.5,1.1
		c0.6,0.3,1.1,0.4,1.8,0.4c0.4,0,0.8-0.1,1.2-0.2c0.4-0.1,0.8-0.3,1.1-0.5s0.6-0.4,0.9-0.7c0.2-0.3,0.4-0.5,0.5-0.8l1.6,0.5
		c-0.2,0.4-0.4,0.9-0.8,1.2s-0.7,0.7-1.2,1s-1,0.5-1.5,0.6c-0.6,0.2-1.1,0.2-1.7,0.2c-0.9,0-1.8-0.2-2.5-0.5c-0.8-0.3-1.4-0.8-2-1.4
		c-0.6-0.6-1-1.3-1.3-2.1C422.7,43.2,422.5,42.4,422.5,41.5z"/>
	<path class="st5" d="M445.5,47.8l-4.6-6.4l-2.7,2.5v3.9h-1.6V30.3h1.6v11.9l7-6.9h1.8l-5.1,5.1l5.3,7.4H445.5z"/>
</g>
</svg>
