<?xml version="1.0" standalone="no"?>
<!DOCTYPE svg PUBLIC "-//W3C//DTD SVG 20010904//EN"
 "http://www.w3.org/TR/2001/REC-SVG-20010904/DTD/svg10.dtd">
<svg version="1.0" xmlns="http://www.w3.org/2000/svg"
 width="1248.000000pt" height="1248.000000pt" viewBox="0 0 1248.000000 1248.000000"
 preserveAspectRatio="xMidYMid meet">
<metadata>
Created by potrace 1.11, written by Peter Selinger 2001-2013
</metadata>
<g transform="translate(0.000000,1248.000000) scale(0.100000,-0.100000)"
fill="#000000" stroke="none">
<path d="M3827 12463 c-2 -5 -3 -406 -3 -894 l1 -885 -25 -3 c-14 -2 -32 -3
-40 -2 -8 0 -37 2 -63 3 -26 2 -55 0 -65 -3 -9 -3 -31 -3 -49 2 -18 4 -35 3
-38 -2 -3 -4 -17 -4 -30 1 -14 5 -25 6 -25 2 0 -4 -17 -6 -37 -4 -81 7 -119 7
-140 0 -12 -4 -25 -3 -28 1 -3 5 -20 6 -37 2 -18 -4 -46 -6 -63 -4 -71 8 -91
8 -110 2 -11 -3 -29 -3 -40 1 -11 4 -30 4 -42 -1 -15 -6 -23 -5 -23 2 0 8 -4
8 -13 0 -8 -6 -16 -8 -20 -5 -3 3 -36 5 -74 5 -37 -1 -76 -1 -85 -1 -22 0 -44
0 -60 0 -7 0 -29 0 -48 1 -86 3 -90 1 -84 -28 3 -16 6 -36 8 -45 1 -10 5 -21
9 -24 4 -4 7 -16 7 -27 0 -32 77 -169 127 -226 115 -129 299 -219 523 -256
139 -23 412 -29 530 -11 l35 6 0 -535 c-1 -354 -4 -538 -11 -545 -6 -6 -20
-13 -32 -15 -12 -3 -30 -7 -39 -9 -28 -7 -164 -53 -198 -67 -16 -7 -34 -13
-40 -14 -21 -5 -203 -96 -259 -130 -32 -19 -60 -35 -62 -35 -2 0 -12 -6 -21
-14 -10 -8 -55 -42 -100 -76 -136 -101 -271 -257 -355 -410 -52 -95 -109 -266
-122 -367 l-5 -43 382 0 382 0 0 -1401 c0 -922 3 -1403 10 -1409 9 -7 93 -25
165 -35 14 -2 36 -6 50 -10 14 -3 39 -7 55 -10 17 -2 39 -6 50 -8 11 -2 49
-10 85 -16 l65 -12 0 -2452 0 -2452 1036 -3 1036 -2 0 2450 c0 1348 2 2452 4
2455 3 2 18 6 34 9 17 3 55 10 85 16 30 6 71 13 90 16 19 2 46 7 60 9 14 3 43
8 65 11 50 8 86 21 83 31 -1 5 1 31 6 58 4 28 10 66 12 85 3 19 7 43 10 52 3
9 6 25 8 35 17 94 20 110 36 178 6 28 13 57 15 65 20 89 57 240 64 260 5 14
19 59 31 100 99 334 254 640 397 784 49 49 154 126 172 126 5 0 11 4 13 8 3 7
139 71 163 77 6 1 17 4 25 7 80 28 121 39 139 41 11 1 21 5 21 10 0 4 4 6 8 3
5 -3 24 -1 43 4 19 5 50 12 69 15 19 3 42 8 50 10 8 2 35 7 60 10 25 3 70 10
100 15 94 15 144 22 270 35 72 7 142 15 185 21 22 3 60 7 85 10 49 5 185 22
240 30 89 13 106 15 120 19 8 3 32 7 54 11 21 3 48 8 60 10 11 2 37 7 56 10
19 4 40 9 45 13 6 3 16 6 24 8 10 1 67 15 121 28 3 1 18 7 34 14 16 6 36 13
45 15 92 18 381 174 476 256 81 70 132 119 149 139 11 14 31 36 44 50 29 31
93 124 116 169 l17 32 -2003 0 -2003 0 1 1430 c0 787 3 1432 6 1435 4 5 33 6
68 4 8 0 31 0 50 0 19 1 56 1 81 0 25 -1 51 1 57 5 6 3 13 2 17 -4 4 -6 12 -7
24 -1 9 5 23 6 30 1 8 -4 25 -5 40 -1 14 3 40 5 56 4 73 -6 143 -5 153 1 6 3
13 2 17 -4 4 -6 13 -7 21 -2 9 5 35 6 60 2 24 -4 44 -3 44 1 0 4 10 5 23 3 12
-3 38 -5 57 -4 19 1 41 2 48 1 25 -2 38 -2 72 -2 19 1 56 1 81 0 25 -1 51 1
57 5 6 3 13 2 17 -4 4 -6 13 -7 21 -2 9 5 35 6 60 2 24 -4 44 -3 44 1 0 4 10
5 23 3 12 -3 38 -5 57 -4 19 1 41 2 48 1 25 -2 38 -2 72 -2 19 1 56 1 81 0 25
-1 51 1 57 5 6 3 13 2 17 -4 4 -6 12 -7 24 -1 9 5 23 6 30 1 8 -4 25 -5 40 -1
14 3 40 5 56 4 17 -2 44 -3 60 -2 29 0 41 0 68 -2 6 0 28 0 47 0 19 1 56 1 81
0 25 -1 51 1 57 5 6 3 13 2 17 -4 4 -6 13 -7 21 -2 9 5 35 6 60 2 24 -4 44 -3
44 1 0 4 10 5 23 3 12 -3 38 -5 57 -4 19 1 41 2 48 1 26 -2 78 -2 127 -1 19 1
28 1 58 -1 6 0 28 0 47 0 19 1 56 1 81 0 25 -1 51 1 57 5 6 3 13 2 17 -4 4 -6
13 -7 23 -2 9 5 28 6 42 2 14 -4 33 -3 43 2 11 6 17 5 17 -2 0 -7 6 -8 18 -2
9 5 26 6 37 2 11 -4 29 -4 41 0 11 5 26 5 34 0 7 -4 24 -5 38 -1 14 4 46 4 71
1 26 -3 58 -3 71 0 14 4 37 3 52 -1 15 -4 30 -4 33 1 3 5 16 5 30 0 14 -5 25
-6 25 -2 0 5 23 6 50 2 28 -4 53 -3 56 1 3 5 15 5 27 0 12 -4 33 -5 47 -1 14
4 37 3 52 -1 15 -4 30 -4 33 1 3 5 16 5 30 0 14 -5 25 -6 25 -2 0 5 23 6 50 2
28 -4 53 -4 55 0 2 4 25 4 50 0 25 -4 48 -3 51 2 3 5 11 5 18 -1 7 -6 17 -6
26 -1 8 5 21 5 31 0 9 -5 19 -7 21 -4 9 8 82 10 106 2 12 -4 22 -5 22 -3 0 15
-55 141 -64 147 -6 4 -8 8 -4 8 7 0 -99 220 -111 230 -3 3 -13 19 -21 35 -17
34 -28 53 -91 145 -24 36 -49 71 -56 78 -7 7 -13 17 -13 20 0 12 -152 167
-201 206 -25 20 -51 36 -58 36 -6 0 -11 4 -11 10 0 5 -11 12 -25 16 -14 3 -25
9 -25 13 0 4 -6 8 -12 8 -7 0 -35 10 -63 23 -119 54 -99 46 -340 128 -159 54
-399 128 -470 145 -5 1 -16 6 -22 10 -7 5 -13 6 -13 4 0 -3 -37 6 -82 20 -46
13 -94 26 -107 29 -14 3 -28 7 -33 10 -4 3 -16 7 -25 9 -10 2 -81 20 -158 40
-164 43 -402 105 -427 111 -35 8 -55 13 -198 49 -80 20 -152 38 -160 39 -8 2
-33 8 -55 14 -22 6 -51 13 -65 16 -14 3 -35 7 -47 10 -13 4 -31 8 -40 10 -10
2 -67 16 -128 31 -60 15 -119 29 -130 31 -69 16 -114 25 -140 30 -16 3 -37 8
-45 11 -8 3 -24 7 -35 9 -11 1 -40 8 -65 15 -33 8 -357 12 -1220 14 -827 2
-1188 6 -1220 14 -80 20 -89 21 -93 14z"/>
</g>
</svg>
